<svg width="18" height="26" viewBox="0 0 18 26" fill="none" xmlns="http://www.w3.org/2000/svg">
<path d="M0 14.5C0 14.5 0.541514 9.08159 3.5 9.5C6.18616 9.8799 5.29109 3.81919 8.5 4.5C10.4723 4.91846 10.6793 8.71875 12 9C13.9723 9.42003 16.5 0.500002 18 0.5C18.5729 0.499999 18 14.5 18 14.5L17.751 26H3.6478e-05L0 14.5Z" fill="#D5F6E2"/>
<path d="M0 14.5C0 14.5 0.541514 9.08159 3.5 9.5C6.18616 9.8799 5.29109 3.81919 8.5 4.5C10.4723 4.91846 10.6793 8.71875 12 9C13.9723 9.42003 16.5 0.500002 18 0.5C18.5729 0.499999 18 14.5 18 14.5L17.751 26H3.6478e-05L0 14.5Z" fill="url(#paint0_linear)"/>
<path d="M0 15C0 15 0.558258 8.91165 3.5 9.5C6 10 6 4 8.5 4.5C10.0169 4.80339 10.5603 8.41627 12 9C13.4397 9.58373 19 -1.5 19 -1.5" stroke="#2AC769"/>
<defs>
<linearGradient id="paint0_linear" x1="8.87546" y1="1.23465" x2="8.87546" y2="23.0066" gradientUnits="userSpaceOnUse">
<stop stop-color="white" stop-opacity="0.0102906"/>
<stop offset="0.9998" stop-color="white"/>
</linearGradient>
</defs>
</svg>
