<svg width="129" height="44" viewBox="0 0 129 44" fill="none" xmlns="http://www.w3.org/2000/svg"><path d="M0 4C0 1.79086 1.79086 0 4 0H125C127.209 0 129 1.79086 129 4V40C129 42.2091 127.209 44 125 44H4C1.79086 44 0 42.2091 0 40V4Z" fill="#F2F2F2"></path><path d="M38 27.607C37.214 29.887 34.861 33.924 32.437 33.968C30.829 33.999 30.312 33.015 28.474 33.015C26.637 33.015 26.062 33.938 24.542 33.998C21.97 34.097 18 28.171 18 23.003C18 18.256 21.308 15.903 24.198 15.86C25.748 15.832 27.212 16.905 28.157 16.905C29.106 16.905 30.884 15.615 32.753 15.804C33.535 15.837 35.732 16.119 37.142 18.181C33.401 20.623 33.984 25.73 38 27.607ZM32.778 10C29.952 10.114 27.646 13.079 27.968 15.531C30.58 15.734 33.086 12.806 32.778 10Z" fill="#333333"></path><path d="M51.5781 12.8398C51.5781 12.5378 51.4674 12.2982 51.2461 12.1211C51.0273 11.9414 50.7188 11.8516 50.3203 11.8516C49.987 11.8516 49.707 11.944 49.4805 12.1289C49.2565 12.3112 49.1445 12.5378 49.1445 12.8086H48.3945C48.3945 12.5065 48.4766 12.2357 48.6406 11.9961C48.8073 11.7565 49.0391 11.5703 49.3359 11.4375C49.6328 11.3021 49.9609 11.2344 50.3203 11.2344C50.9557 11.2344 51.4492 11.3776 51.8008 11.6641C52.1523 11.9479 52.3281 12.3438 52.3281 12.8516C52.3281 13.1146 52.2474 13.3542 52.0859 13.5703C51.9245 13.7865 51.6992 13.957 51.4102 14.082C52.0794 14.306 52.4141 14.75 52.4141 15.4141C52.4141 15.9245 52.224 16.3294 51.8438 16.6289C51.4635 16.9284 50.9557 17.0781 50.3203 17.0781C49.9427 17.0781 49.599 17.0117 49.2891 16.8789C48.9818 16.7435 48.7422 16.5521 48.5703 16.3047C48.3984 16.0573 48.3125 15.763 48.3125 15.4219H49.0625C49.0625 15.7214 49.181 15.9714 49.418 16.1719C49.6549 16.3698 49.9557 16.4688 50.3203 16.4688C50.7292 16.4688 51.0547 16.3737 51.2969 16.1836C51.5417 15.9935 51.6641 15.7422 51.6641 15.4297C51.6641 14.763 51.2513 14.4232 50.4258 14.4102H49.7227V13.793H50.4219C50.8021 13.7852 51.0898 13.6992 51.2852 13.5352C51.4805 13.3711 51.5781 13.1393 51.5781 12.8398ZM55.9062 17C55.8646 16.9167 55.8307 16.7682 55.8047 16.5547C55.4688 16.9036 55.0677 17.0781 54.6016 17.0781C54.1849 17.0781 53.8424 16.9609 53.5742 16.7266C53.3086 16.4896 53.1758 16.1901 53.1758 15.8281C53.1758 15.388 53.3424 15.0469 53.6758 14.8047C54.0117 14.5599 54.4831 14.4375 55.0898 14.4375H55.793V14.1055C55.793 13.8529 55.7174 13.6523 55.5664 13.5039C55.4154 13.3529 55.1927 13.2773 54.8984 13.2773C54.6406 13.2773 54.4245 13.3424 54.25 13.4727C54.0755 13.6029 53.9883 13.7604 53.9883 13.9453H53.2617C53.2617 13.7344 53.3359 13.5312 53.4844 13.3359C53.6354 13.138 53.8385 12.9818 54.0938 12.8672C54.3516 12.7526 54.6341 12.6953 54.9414 12.6953C55.4284 12.6953 55.8099 12.8177 56.0859 13.0625C56.362 13.3047 56.5052 13.6393 56.5156 14.0664V16.0117C56.5156 16.3997 56.5651 16.7083 56.6641 16.9375V17H55.9062ZM54.707 16.4492C54.9336 16.4492 55.1484 16.3906 55.3516 16.2734C55.5547 16.1562 55.7018 16.0039 55.793 15.8164V14.9492H55.2266C54.3411 14.9492 53.8984 15.2083 53.8984 15.7266C53.8984 15.9531 53.974 16.1302 54.125 16.2578C54.276 16.3854 54.4701 16.4492 54.707 16.4492ZM60.3789 13.3711H58.4297V17H57.7031V12.7734H60.3789V13.3711ZM64.5781 14.9336C64.5781 15.5768 64.431 16.0951 64.1367 16.4883C63.8424 16.8815 63.444 17.0781 62.9414 17.0781C62.4284 17.0781 62.0247 16.9154 61.7305 16.5898V18.625H61.0078V12.7734H61.668L61.7031 13.2422C61.9974 12.8776 62.4062 12.6953 62.9297 12.6953C63.4375 12.6953 63.8385 12.8867 64.1328 13.2695C64.4297 13.6523 64.5781 14.1849 64.5781 14.8672V14.9336ZM63.8555 14.8516C63.8555 14.375 63.7539 13.9987 63.5508 13.7227C63.3477 13.4466 63.069 13.3086 62.7148 13.3086C62.2773 13.3086 61.9492 13.5026 61.7305 13.8906V15.9102C61.9466 16.2956 62.2773 16.4883 62.7227 16.4883C63.069 16.4883 63.3438 16.3516 63.5469 16.0781C63.7526 15.8021 63.8555 15.3932 63.8555 14.8516ZM66.8359 15.9414L67.8203 12.7734H68.5938L66.8945 17.6523C66.6315 18.3555 66.2135 18.707 65.6406 18.707L65.5039 18.6953L65.2344 18.6445V18.0586L65.4297 18.0742C65.6745 18.0742 65.8646 18.0247 66 17.9258C66.138 17.8268 66.2513 17.6458 66.3398 17.3828L66.5 16.9531L64.9922 12.7734H65.7812L66.8359 15.9414ZM71.5664 13.9297C71.5664 13.7318 71.4909 13.5755 71.3398 13.4609C71.1888 13.3438 70.9818 13.2852 70.7188 13.2852C70.4635 13.2852 70.25 13.3516 70.0781 13.4844C69.9089 13.6172 69.8242 13.7734 69.8242 13.9531H69.1055C69.1055 13.5859 69.2591 13.2852 69.5664 13.0508C69.8737 12.8164 70.2578 12.6992 70.7188 12.6992C71.2135 12.6992 71.599 12.806 71.875 13.0195C72.151 13.2305 72.2891 13.5326 72.2891 13.9258C72.2891 14.1159 72.2318 14.2904 72.1172 14.4492C72.0026 14.6081 71.8398 14.7344 71.6289 14.8281C72.1211 14.9948 72.3672 15.3229 72.3672 15.8125C72.3672 16.2005 72.2174 16.5078 71.918 16.7344C71.6185 16.9609 71.2188 17.0742 70.7188 17.0742C70.2318 17.0742 69.8294 16.9557 69.5117 16.7188C69.1966 16.4792 69.0391 16.1562 69.0391 15.75H69.7578C69.7578 15.9557 69.849 16.1328 70.0312 16.2812C70.2161 16.4271 70.4453 16.5 70.7188 16.5C70.9948 16.5 71.2174 16.4362 71.3867 16.3086C71.556 16.181 71.6406 16.0156 71.6406 15.8125C71.6406 15.5755 71.569 15.4062 71.4258 15.3047C71.2852 15.2005 71.0651 15.1484 70.7656 15.1484H70.043V14.5391H70.8281C71.3203 14.526 71.5664 14.3229 71.5664 13.9297ZM76.0391 12.7734H76.7617V17H76.0391V13.918L74.0898 17H73.3672V12.7734H74.0898V15.8594L76.0391 12.7734ZM81.0625 13.3594H79.6445V17H78.9219V13.3594H77.5312V12.7734H81.0625V13.3594ZM83.207 17.0781C82.6341 17.0781 82.168 16.8906 81.8086 16.5156C81.4492 16.138 81.2695 15.6341 81.2695 15.0039V14.8711C81.2695 14.4518 81.349 14.0781 81.5078 13.75C81.6693 13.4193 81.8932 13.1615 82.1797 12.9766C82.4688 12.7891 82.7812 12.6953 83.1172 12.6953C83.6667 12.6953 84.0938 12.8763 84.3984 13.2383C84.7031 13.6003 84.8555 14.1185 84.8555 14.793V15.0938H81.9922C82.0026 15.5104 82.1237 15.8477 82.3555 16.1055C82.5898 16.3607 82.8867 16.4883 83.2461 16.4883C83.5013 16.4883 83.7174 16.4362 83.8945 16.332C84.0716 16.2279 84.2266 16.0898 84.3594 15.918L84.8008 16.2617C84.4466 16.806 83.9154 17.0781 83.207 17.0781ZM83.1172 13.2891C82.8255 13.2891 82.5807 13.3958 82.3828 13.6094C82.1849 13.8203 82.0625 14.1172 82.0156 14.5H84.1328V14.4453C84.112 14.0781 84.013 13.7943 83.8359 13.5938C83.6589 13.3906 83.4193 13.2891 83.1172 13.2891ZM87.7461 17V12.7734H89.3945C89.957 12.7734 90.388 12.8724 90.6875 13.0703C90.9896 13.2656 91.1406 13.5534 91.1406 13.9336C91.1406 14.1289 91.082 14.306 90.9648 14.4648C90.8477 14.6211 90.6745 14.7409 90.4453 14.8242C90.7005 14.8841 90.9049 15.0013 91.0586 15.1758C91.2148 15.3503 91.293 15.5586 91.293 15.8008C91.293 16.1888 91.1497 16.4857 90.8633 16.6914C90.5794 16.8971 90.1771 17 89.6562 17H87.7461ZM88.4688 15.1445V16.418H89.6641C89.9661 16.418 90.1914 16.362 90.3398 16.25C90.4909 16.138 90.5664 15.9805 90.5664 15.7773C90.5664 15.3555 90.2565 15.1445 89.6367 15.1445H88.4688ZM88.4688 14.5664H89.4023C90.0794 14.5664 90.418 14.3685 90.418 13.9727C90.418 13.5768 90.0977 13.3724 89.457 13.3594H88.4688V14.5664Z" fill="#333333"></path><path d="M53.6426 30.0137H50.3379L49.6465 32H48.1055L51.3281 23.4688H52.6582L55.8867 32H54.3398L53.6426 30.0137ZM50.7539 28.8184H53.2266L51.9902 25.2793L50.7539 28.8184ZM61.9922 28.8945C61.9922 29.875 61.7695 30.6582 61.3242 31.2441C60.8789 31.8262 60.2812 32.1172 59.5312 32.1172C58.8359 32.1172 58.2793 31.8887 57.8613 31.4316V34.4375H56.4375V25.6602H57.75L57.8086 26.3047C58.2266 25.7969 58.7949 25.543 59.5137 25.543C60.2871 25.543 60.8926 25.832 61.3301 26.4102C61.7715 26.9844 61.9922 27.7832 61.9922 28.8066V28.8945ZM60.5742 28.7715C60.5742 28.1387 60.4473 27.6367 60.1934 27.2656C59.9434 26.8945 59.584 26.709 59.1152 26.709C58.5332 26.709 58.1152 26.9492 57.8613 27.4297V30.2422C58.1191 30.7344 58.541 30.9805 59.127 30.9805C59.5801 30.9805 59.9336 30.7988 60.1875 30.4355C60.4453 30.0684 60.5742 29.5137 60.5742 28.7715ZM68.7539 28.8945C68.7539 29.875 68.5312 30.6582 68.0859 31.2441C67.6406 31.8262 67.043 32.1172 66.293 32.1172C65.5977 32.1172 65.041 31.8887 64.623 31.4316V34.4375H63.1992V25.6602H64.5117L64.5703 26.3047C64.9883 25.7969 65.5566 25.543 66.2754 25.543C67.0488 25.543 67.6543 25.832 68.0918 26.4102C68.5332 26.9844 68.7539 27.7832 68.7539 28.8066V28.8945ZM67.3359 28.7715C67.3359 28.1387 67.209 27.6367 66.9551 27.2656C66.7051 26.8945 66.3457 26.709 65.877 26.709C65.2949 26.709 64.877 26.9492 64.623 27.4297V30.2422C64.8809 30.7344 65.3027 30.9805 65.8887 30.9805C66.3418 30.9805 66.6953 30.7988 66.9492 30.4355C67.207 30.0684 67.3359 29.5137 67.3359 28.7715ZM77.5488 29.8027C77.5488 29.4277 77.416 29.1387 77.1504 28.9355C76.8887 28.7324 76.4141 28.5273 75.7266 28.3203C75.0391 28.1133 74.4922 27.8828 74.0859 27.6289C73.3086 27.1406 72.9199 26.5039 72.9199 25.7188C72.9199 25.0312 73.1992 24.4648 73.7578 24.0195C74.3203 23.5742 75.0488 23.3516 75.9434 23.3516C76.5371 23.3516 77.0664 23.4609 77.5312 23.6797C77.9961 23.8984 78.3613 24.2109 78.627 24.6172C78.8926 25.0195 79.0254 25.4668 79.0254 25.959H77.5488C77.5488 25.5137 77.4082 25.166 77.127 24.916C76.8496 24.6621 76.4512 24.5352 75.9316 24.5352C75.4473 24.5352 75.0703 24.6387 74.8008 24.8457C74.5352 25.0527 74.4023 25.3418 74.4023 25.7129C74.4023 26.0254 74.5469 26.2871 74.8359 26.498C75.125 26.7051 75.6016 26.9082 76.2656 27.1074C76.9297 27.3027 77.4629 27.5273 77.8652 27.7812C78.2676 28.0312 78.5625 28.3203 78.75 28.6484C78.9375 28.9727 79.0312 29.3535 79.0312 29.791C79.0312 30.502 78.7578 31.0684 78.2109 31.4902C77.668 31.9082 76.9297 32.1172 75.9961 32.1172C75.3789 32.1172 74.8105 32.0039 74.291 31.7773C73.7754 31.5469 73.373 31.2305 73.084 30.8281C72.7988 30.4258 72.6562 29.957 72.6562 29.4219H74.1387C74.1387 29.9062 74.2988 30.2812 74.6191 30.5469C74.9395 30.8125 75.3984 30.9453 75.9961 30.9453C76.5117 30.9453 76.8984 30.8418 77.1562 30.6348C77.418 30.4238 77.5488 30.1465 77.5488 29.8027ZM81.9785 24.1191V25.6602H83.0977V26.7148H81.9785V30.2539C81.9785 30.4961 82.0254 30.6719 82.1191 30.7812C82.2168 30.8867 82.3887 30.9395 82.6348 30.9395C82.7988 30.9395 82.9648 30.9199 83.1328 30.8809V31.9824C82.8086 32.0723 82.4961 32.1172 82.1953 32.1172C81.1016 32.1172 80.5547 31.5137 80.5547 30.3066V26.7148H79.5117V25.6602H80.5547V24.1191H81.9785ZM83.748 28.7715C83.748 28.1504 83.8711 27.5918 84.1172 27.0957C84.3633 26.5957 84.709 26.2129 85.1543 25.9473C85.5996 25.6777 86.1113 25.543 86.6895 25.543C87.5449 25.543 88.2383 25.8184 88.7695 26.3691C89.3047 26.9199 89.5938 27.6504 89.6367 28.5605L89.6426 28.8945C89.6426 29.5195 89.5215 30.0781 89.2793 30.5703C89.041 31.0625 88.6973 31.4434 88.248 31.7129C87.8027 31.9824 87.2871 32.1172 86.7012 32.1172C85.8066 32.1172 85.0898 31.8203 84.5508 31.2266C84.0156 30.6289 83.748 29.834 83.748 28.8418V28.7715ZM85.1719 28.8945C85.1719 29.5469 85.3066 30.0586 85.5762 30.4297C85.8457 30.7969 86.2207 30.9805 86.7012 30.9805C87.1816 30.9805 87.5547 30.793 87.8203 30.418C88.0898 30.043 88.2246 29.4941 88.2246 28.7715C88.2246 28.1309 88.0859 27.623 87.8086 27.248C87.5352 26.873 87.1621 26.6855 86.6895 26.6855C86.2246 26.6855 85.8555 26.8711 85.582 27.2422C85.3086 27.6094 85.1719 28.1602 85.1719 28.8945ZM94.166 26.9609C93.9785 26.9297 93.7852 26.9141 93.5859 26.9141C92.9336 26.9141 92.4941 27.1641 92.2676 27.6641V32H90.8438V25.6602H92.2031L92.2383 26.3691C92.582 25.8184 93.0586 25.543 93.668 25.543C93.8711 25.543 94.0391 25.5703 94.1719 25.625L94.166 26.9609ZM97.7402 32.1172C96.8379 32.1172 96.1055 31.834 95.543 31.2676C94.9844 30.6973 94.7051 29.9395 94.7051 28.9941V28.8184C94.7051 28.1855 94.8262 27.6211 95.0684 27.125C95.3145 26.625 95.6582 26.2363 96.0996 25.959C96.541 25.6816 97.0332 25.543 97.5762 25.543C98.4395 25.543 99.1055 25.8184 99.5742 26.3691C100.047 26.9199 100.283 27.6992 100.283 28.707V29.2812H96.1406C96.1836 29.8047 96.3574 30.2188 96.6621 30.5234C96.9707 30.8281 97.3574 30.9805 97.8223 30.9805C98.4746 30.9805 99.0059 30.7168 99.416 30.1895L100.184 30.9219C99.9297 31.3008 99.5898 31.5957 99.1641 31.8066C98.7422 32.0137 98.2676 32.1172 97.7402 32.1172ZM97.5703 26.6855C97.1797 26.6855 96.8633 26.8223 96.6211 27.0957C96.3828 27.3691 96.2305 27.75 96.1641 28.2383H98.877V28.1328C98.8457 27.6562 98.7188 27.2969 98.4961 27.0547C98.2734 26.8086 97.9648 26.6855 97.5703 26.6855Z" fill="#333333"></path></svg>