<svg width="24" height="24" viewBox="0 0 24 24" fill="none" xmlns="http://www.w3.org/2000/svg"><path fill-rule="evenodd" clip-rule="evenodd" d="M2.98512 2C2.4397 2.00796 2 2.45258 2 2.99989C2 3.55218 2.44772 3.99989 3 3.99989H4.15287L4.80419 7.90777C4.80142 7.93811 4.8 7.96883 4.8 7.99989C4.8 8.14631 4.83147 8.28537 4.88801 8.4107L6.01361 15.1643C6.02309 15.2212 6.03749 15.2772 6.05663 15.3316C6.25051 15.883 6.56164 16.3819 6.96482 16.7958C6.37153 17.3439 6 18.1285 6 18.9999C6 20.6567 7.34315 21.9999 9 21.9999C10.6569 21.9999 12 20.6567 12 18.9999C12 18.6493 11.9398 18.3127 11.8293 17.9999H14.1707C14.0602 18.3127 14 18.6493 14 18.9999C14 20.6567 15.3431 21.9999 17 21.9999C18.6569 21.9999 20 20.6567 20 18.9999C20 18.3616 19.8007 17.7699 19.4609 17.2836C20.1465 16.8046 20.6654 16.1221 20.9434 15.3316C20.9651 15.2699 20.9807 15.2061 20.99 15.1413L21.99 8.14131C21.9953 8.10408 21.9985 8.06678 21.9996 8.02958V7.97015C21.9928 7.7415 21.9076 7.52011 21.7555 7.34469C21.5655 7.12569 21.2899 6.99989 21 6.99989H6.68046L5.98639 2.83549C5.90684 2.35819 5.49725 2.00706 5.01483 2H2.98512ZM7.97069 14.7412L7.01379 8.99989H19.847L19.0254 14.7511C18.8752 15.1246 18.6154 15.4447 18.2793 15.6688C17.9505 15.888 17.5649 16.0044 17.1714 16.0047C17.1147 16.0015 17.0575 15.9999 17 15.9999H10C9.98111 15.9999 9.96223 16.0004 9.94337 16.0015C9.51054 16.026 9.08144 15.9093 8.72072 15.6688C8.38168 15.4428 8.12029 15.1189 7.97069 14.7412ZM16 18.9999C16 18.4548 16.4361 18.0116 16.9784 18.0001C17.0157 18.0019 17.053 18.0032 17.0903 18.0039C17.6003 18.0496 18 18.4781 18 18.9999C18 19.5522 17.5523 19.9999 17 19.9999C16.4477 19.9999 16 19.5522 16 18.9999ZM8 18.9999C8 18.4476 8.44772 17.9999 9 17.9999C9.55228 17.9999 10 18.4476 10 18.9999C10 19.5522 9.55228 19.9999 9 19.9999C8.44772 19.9999 8 19.5522 8 18.9999Z" fill="#333333"></path></svg>