<svg fill="#333333" opacity="1" class="ut-icon" width="24" height="24" viewBox="0 0 24 24" xmlns="http://www.w3.org/2000/svg"><path fill-rule="evenodd" clip-rule="evenodd" d="M16.35 5.00024C16.35 4.58603 16.0142 4.25024 15.6 4.25024C15.1858 4.25024 14.85 4.58603 14.85 5.00024V5.85024H9.95V5.00024C9.95 4.58603 9.61421 4.25024 9.2 4.25024C8.78579 4.25024 8.45 4.58603 8.45 5.00024V5.85024H7.6C6.30213 5.85024 5.25 6.90238 5.25 8.20024V11.4002V17.8002C5.25 19.0981 6.30213 20.1502 7.6 20.1502H17.2C18.4979 20.1502 19.55 19.0981 19.55 17.8002V11.4002V8.20024C19.55 6.90238 18.4979 5.85024 17.2 5.85024H16.35V5.00024ZM18.05 10.6502V8.20024C18.05 7.7308 17.6694 7.35024 17.2 7.35024H16.35V8.20024C16.35 8.61446 16.0142 8.95024 15.6 8.95024C15.1858 8.95024 14.85 8.61446 14.85 8.20024V7.35024H9.95V8.20024C9.95 8.61446 9.61421 8.95024 9.2 8.95024C8.78579 8.95024 8.45 8.61446 8.45 8.20024V7.35024H7.6C7.13056 7.35024 6.75 7.7308 6.75 8.20024V10.6502H18.05ZM6.75 12.1502H18.05V17.8002C18.05 18.2697 17.6694 18.6502 17.2 18.6502H7.6C7.13056 18.6502 6.75 18.2697 6.75 17.8002V12.1502Z" fill="#666666"></path></svg>