<svg class="ut-icon" width="24" height="24" viewBox="0 0 24 24" fill="none" xmlns="http://www.w3.org/2000/svg"><path d="M13 10.6818C13.651 10.6818 14.2753 10.9404 14.7356 11.4007C15.1959 11.8611 15.4545 12.4854 15.4545 13.1364C15.4545 13.7873 15.1959 14.4117 14.7356 14.872C14.2753 15.3323 13.651 15.5909 13 15.5909C12.349 15.5909 11.7247 15.3323 11.2644 14.872C10.8041 14.4117 10.5455 13.7873 10.5455 13.1364C10.5455 12.4854 10.8041 11.8611 11.2644 11.4007C11.7247 10.9404 12.349 10.6818 13 10.6818ZM13 7C17.0909 7 20.5845 9.54455 22 13.1364C20.5845 16.7282 17.0909 19.2727 13 19.2727C8.90909 19.2727 5.41545 16.7282 4 13.1364C5.41545 9.54455 8.90909 7 13 7ZM5.78364 13.1364C7.13364 15.8855 9.92364 17.6364 13 17.6364C16.0764 17.6364 18.8664 15.8855 20.2164 13.1364C18.8664 10.3873 16.0764 8.63636 13 8.63636C9.92364 8.63636 7.13364 10.3873 5.78364 13.1364Z" fill="#666666"></path></svg>