<svg width="20" height="18" viewBox="0 0 20 18" fill="none" xmlns="http://www.w3.org/2000/svg"><path fill-rule="evenodd" clip-rule="evenodd" d="M3.99999 0C3.55838 0 3.16906 0.289668 3.04216 0.712652L0.0488427 10.6904C0.0316031 10.7434 0.0186696 10.7983 0.0104551 10.8548C0.00440478 10.8957 0.000954628 10.9365 0 10.977V13.5102C0.00268149 14.7 0.476488 15.8405 1.31801 16.682C2.16192 17.5259 3.30652 18 4.49999 18C5.69346 18 6.83805 17.5259 7.68197 16.682C8.40718 15.9568 8.8593 15.0095 8.97214 14H11.0278C11.1407 15.0095 11.5928 15.9568 12.318 16.682C13.1619 17.5259 14.3065 18 15.5 18C16.6935 18 17.8381 17.5259 18.682 16.682C19.5259 15.8381 20 14.6935 20 13.5V11.0232L20 10.9781C19.9991 10.9371 19.9956 10.8959 19.9895 10.8547C19.9813 10.7983 19.9684 10.7434 19.9511 10.6904L16.9578 0.712652C16.8309 0.289668 16.4416 0 16 0H14C13.4477 0 13 0.447715 13 1C13 1.55228 13.4477 2 14 2H15.256L17.656 10H12C11.4477 10 11 10.4477 11 11V12H8.99999V11C8.99999 10.4477 8.55227 10 7.99999 10H2.34402L4.74402 2H5.99999C6.55227 2 6.99999 1.55228 6.99999 1C6.99999 0.447715 6.55227 0 5.99999 0H3.99999ZM6.99999 12V13.5C6.99999 14.163 6.7366 14.7989 6.26776 15.2678C5.79891 15.7366 5.16303 16 4.49999 16C3.83695 16 3.20106 15.7366 2.73222 15.2678C2.26338 14.7989 1.99999 14.163 1.99999 13.5V12H6.99999ZM13 12V13.5C13 14.163 13.2634 14.7989 13.7322 15.2678C14.2011 15.7366 14.8369 16 15.5 16C16.163 16 16.7989 15.7366 17.2678 15.2678C17.7366 14.7989 18 14.163 18 13.5V12H13Z" fill="#333333"></path></svg>