<svg width="129" height="44" viewBox="0 0 129 44" fill="none" xmlns="http://www.w3.org/2000/svg"><path d="M0 4C0 1.79086 1.79086 0 4 0H125C127.209 0 129 1.79086 129 4V40C129 42.2091 127.209 44 125 44H4C1.79086 44 0 42.2091 0 40V4Z" fill="#F2F2F2"></path><path fill-rule="evenodd" clip-rule="evenodd" d="M17.571 33.6639L28.102 23.1629L31.814 26.8639L19.295 33.8049C18.819 34.0689 18.236 34.0649 17.763 33.7939L17.571 33.6639ZM27.04 22.1039L17 32.1149V12.0929L27.04 22.1039V22.1039ZM33.314 17.9669L38.219 20.6859C38.701 20.9539 39 21.4559 39 21.9999C39 22.5439 38.701 23.0459 38.219 23.3139L33.18 26.1069L29.165 22.1039L33.314 17.9669V17.9669ZM17.46 10.4329C17.55 10.3459 17.651 10.2699 17.763 10.2059C18.236 9.93492 18.819 9.93092 19.295 10.1949L31.948 17.2099L28.102 21.0449L17.46 10.4329Z" fill="#333333"></path><path d="M51.5781 12.8398C51.5781 12.5378 51.4674 12.2982 51.2461 12.1211C51.0273 11.9414 50.7188 11.8516 50.3203 11.8516C49.987 11.8516 49.707 11.944 49.4805 12.1289C49.2565 12.3112 49.1445 12.5378 49.1445 12.8086H48.3945C48.3945 12.5065 48.4766 12.2357 48.6406 11.9961C48.8073 11.7565 49.0391 11.5703 49.3359 11.4375C49.6328 11.3021 49.9609 11.2344 50.3203 11.2344C50.9557 11.2344 51.4492 11.3776 51.8008 11.6641C52.1523 11.9479 52.3281 12.3438 52.3281 12.8516C52.3281 13.1146 52.2474 13.3542 52.0859 13.5703C51.9245 13.7865 51.6992 13.957 51.4102 14.082C52.0794 14.306 52.4141 14.75 52.4141 15.4141C52.4141 15.9245 52.224 16.3294 51.8438 16.6289C51.4635 16.9284 50.9557 17.0781 50.3203 17.0781C49.9427 17.0781 49.599 17.0117 49.2891 16.8789C48.9818 16.7435 48.7422 16.5521 48.5703 16.3047C48.3984 16.0573 48.3125 15.763 48.3125 15.4219H49.0625C49.0625 15.7214 49.181 15.9714 49.418 16.1719C49.6549 16.3698 49.9557 16.4688 50.3203 16.4688C50.7292 16.4688 51.0547 16.3737 51.2969 16.1836C51.5417 15.9935 51.6641 15.7422 51.6641 15.4297C51.6641 14.763 51.2513 14.4232 50.4258 14.4102H49.7227V13.793H50.4219C50.8021 13.7852 51.0898 13.6992 51.2852 13.5352C51.4805 13.3711 51.5781 13.1393 51.5781 12.8398ZM55.9062 17C55.8646 16.9167 55.8307 16.7682 55.8047 16.5547C55.4688 16.9036 55.0677 17.0781 54.6016 17.0781C54.1849 17.0781 53.8424 16.9609 53.5742 16.7266C53.3086 16.4896 53.1758 16.1901 53.1758 15.8281C53.1758 15.388 53.3424 15.0469 53.6758 14.8047C54.0117 14.5599 54.4831 14.4375 55.0898 14.4375H55.793V14.1055C55.793 13.8529 55.7174 13.6523 55.5664 13.5039C55.4154 13.3529 55.1927 13.2773 54.8984 13.2773C54.6406 13.2773 54.4245 13.3424 54.25 13.4727C54.0755 13.6029 53.9883 13.7604 53.9883 13.9453H53.2617C53.2617 13.7344 53.3359 13.5312 53.4844 13.3359C53.6354 13.138 53.8385 12.9818 54.0938 12.8672C54.3516 12.7526 54.6341 12.6953 54.9414 12.6953C55.4284 12.6953 55.8099 12.8177 56.0859 13.0625C56.362 13.3047 56.5052 13.6393 56.5156 14.0664V16.0117C56.5156 16.3997 56.5651 16.7083 56.6641 16.9375V17H55.9062ZM54.707 16.4492C54.9336 16.4492 55.1484 16.3906 55.3516 16.2734C55.5547 16.1562 55.7018 16.0039 55.793 15.8164V14.9492H55.2266C54.3411 14.9492 53.8984 15.2083 53.8984 15.7266C53.8984 15.9531 53.974 16.1302 54.125 16.2578C54.276 16.3854 54.4701 16.4492 54.707 16.4492ZM60.3789 13.3711H58.4297V17H57.7031V12.7734H60.3789V13.3711ZM64.5781 14.9336C64.5781 15.5768 64.431 16.0951 64.1367 16.4883C63.8424 16.8815 63.444 17.0781 62.9414 17.0781C62.4284 17.0781 62.0247 16.9154 61.7305 16.5898V18.625H61.0078V12.7734H61.668L61.7031 13.2422C61.9974 12.8776 62.4062 12.6953 62.9297 12.6953C63.4375 12.6953 63.8385 12.8867 64.1328 13.2695C64.4297 13.6523 64.5781 14.1849 64.5781 14.8672V14.9336ZM63.8555 14.8516C63.8555 14.375 63.7539 13.9987 63.5508 13.7227C63.3477 13.4466 63.069 13.3086 62.7148 13.3086C62.2773 13.3086 61.9492 13.5026 61.7305 13.8906V15.9102C61.9466 16.2956 62.2773 16.4883 62.7227 16.4883C63.069 16.4883 63.3438 16.3516 63.5469 16.0781C63.7526 15.8021 63.8555 15.3932 63.8555 14.8516ZM66.8359 15.9414L67.8203 12.7734H68.5938L66.8945 17.6523C66.6315 18.3555 66.2135 18.707 65.6406 18.707L65.5039 18.6953L65.2344 18.6445V18.0586L65.4297 18.0742C65.6745 18.0742 65.8646 18.0247 66 17.9258C66.138 17.8268 66.2513 17.6458 66.3398 17.3828L66.5 16.9531L64.9922 12.7734H65.7812L66.8359 15.9414ZM71.5664 13.9297C71.5664 13.7318 71.4909 13.5755 71.3398 13.4609C71.1888 13.3438 70.9818 13.2852 70.7188 13.2852C70.4635 13.2852 70.25 13.3516 70.0781 13.4844C69.9089 13.6172 69.8242 13.7734 69.8242 13.9531H69.1055C69.1055 13.5859 69.2591 13.2852 69.5664 13.0508C69.8737 12.8164 70.2578 12.6992 70.7188 12.6992C71.2135 12.6992 71.599 12.806 71.875 13.0195C72.151 13.2305 72.2891 13.5326 72.2891 13.9258C72.2891 14.1159 72.2318 14.2904 72.1172 14.4492C72.0026 14.6081 71.8398 14.7344 71.6289 14.8281C72.1211 14.9948 72.3672 15.3229 72.3672 15.8125C72.3672 16.2005 72.2174 16.5078 71.918 16.7344C71.6185 16.9609 71.2188 17.0742 70.7188 17.0742C70.2318 17.0742 69.8294 16.9557 69.5117 16.7188C69.1966 16.4792 69.0391 16.1562 69.0391 15.75H69.7578C69.7578 15.9557 69.849 16.1328 70.0312 16.2812C70.2161 16.4271 70.4453 16.5 70.7188 16.5C70.9948 16.5 71.2174 16.4362 71.3867 16.3086C71.556 16.181 71.6406 16.0156 71.6406 15.8125C71.6406 15.5755 71.569 15.4062 71.4258 15.3047C71.2852 15.2005 71.0651 15.1484 70.7656 15.1484H70.043V14.5391H70.8281C71.3203 14.526 71.5664 14.3229 71.5664 13.9297ZM76.0391 12.7734H76.7617V17H76.0391V13.918L74.0898 17H73.3672V12.7734H74.0898V15.8594L76.0391 12.7734ZM81.0625 13.3594H79.6445V17H78.9219V13.3594H77.5312V12.7734H81.0625V13.3594ZM83.207 17.0781C82.6341 17.0781 82.168 16.8906 81.8086 16.5156C81.4492 16.138 81.2695 15.6341 81.2695 15.0039V14.8711C81.2695 14.4518 81.349 14.0781 81.5078 13.75C81.6693 13.4193 81.8932 13.1615 82.1797 12.9766C82.4688 12.7891 82.7812 12.6953 83.1172 12.6953C83.6667 12.6953 84.0938 12.8763 84.3984 13.2383C84.7031 13.6003 84.8555 14.1185 84.8555 14.793V15.0938H81.9922C82.0026 15.5104 82.1237 15.8477 82.3555 16.1055C82.5898 16.3607 82.8867 16.4883 83.2461 16.4883C83.5013 16.4883 83.7174 16.4362 83.8945 16.332C84.0716 16.2279 84.2266 16.0898 84.3594 15.918L84.8008 16.2617C84.4466 16.806 83.9154 17.0781 83.207 17.0781ZM83.1172 13.2891C82.8255 13.2891 82.5807 13.3958 82.3828 13.6094C82.1849 13.8203 82.0625 14.1172 82.0156 14.5H84.1328V14.4453C84.112 14.0781 84.013 13.7943 83.8359 13.5938C83.6589 13.3906 83.4193 13.2891 83.1172 13.2891ZM87.7461 17V12.7734H89.3945C89.957 12.7734 90.388 12.8724 90.6875 13.0703C90.9896 13.2656 91.1406 13.5534 91.1406 13.9336C91.1406 14.1289 91.082 14.306 90.9648 14.4648C90.8477 14.6211 90.6745 14.7409 90.4453 14.8242C90.7005 14.8841 90.9049 15.0013 91.0586 15.1758C91.2148 15.3503 91.293 15.5586 91.293 15.8008C91.293 16.1888 91.1497 16.4857 90.8633 16.6914C90.5794 16.8971 90.1771 17 89.6562 17H87.7461ZM88.4688 15.1445V16.418H89.6641C89.9661 16.418 90.1914 16.362 90.3398 16.25C90.4909 16.138 90.5664 15.9805 90.5664 15.7773C90.5664 15.3555 90.2565 15.1445 89.6367 15.1445H88.4688ZM88.4688 14.5664H89.4023C90.0794 14.5664 90.418 14.3685 90.418 13.9727C90.418 13.5768 90.0977 13.3724 89.457 13.3594H88.4688V14.5664Z" fill="#333333"></path><path d="M55.4062 30.8926C55.0977 31.2949 54.6699 31.5996 54.123 31.8066C53.5762 32.0137 52.9551 32.1172 52.2598 32.1172C51.5449 32.1172 50.9121 31.9551 50.3613 31.6309C49.8105 31.3066 49.3848 30.8438 49.084 30.2422C48.7871 29.6367 48.6328 28.9316 48.6211 28.127V27.459C48.6211 26.1699 48.9297 25.1641 49.5469 24.4414C50.1641 23.7148 51.0254 23.3516 52.1309 23.3516C53.0801 23.3516 53.834 23.5859 54.3926 24.0547C54.9512 24.5234 55.2871 25.1992 55.4004 26.082H53.9473C53.7832 25.0547 53.1875 24.541 52.1602 24.541C51.4961 24.541 50.9902 24.7812 50.6426 25.2617C50.2988 25.7383 50.1211 26.4395 50.1094 27.3652V28.0215C50.1094 28.9434 50.3027 29.6602 50.6895 30.1719C51.0801 30.6797 51.6211 30.9336 52.3125 30.9336C53.0703 30.9336 53.6094 30.7617 53.9297 30.418V28.748H52.1719V27.623H55.4062V30.8926ZM56.6309 28.7715C56.6309 28.1504 56.7539 27.5918 57 27.0957C57.2461 26.5957 57.5918 26.2129 58.0371 25.9473C58.4824 25.6777 58.9941 25.543 59.5723 25.543C60.4277 25.543 61.1211 25.8184 61.6523 26.3691C62.1875 26.9199 62.4766 27.6504 62.5195 28.5605L62.5254 28.8945C62.5254 29.5195 62.4043 30.0781 62.1621 30.5703C61.9238 31.0625 61.5801 31.4434 61.1309 31.7129C60.6855 31.9824 60.1699 32.1172 59.584 32.1172C58.6895 32.1172 57.9727 31.8203 57.4336 31.2266C56.8984 30.6289 56.6309 29.834 56.6309 28.8418V28.7715ZM58.0547 28.8945C58.0547 29.5469 58.1895 30.0586 58.459 30.4297C58.7285 30.7969 59.1035 30.9805 59.584 30.9805C60.0645 30.9805 60.4375 30.793 60.7031 30.418C60.9727 30.043 61.1074 29.4941 61.1074 28.7715C61.1074 28.1309 60.9688 27.623 60.6914 27.248C60.418 26.873 60.0449 26.6855 59.5723 26.6855C59.1074 26.6855 58.7383 26.8711 58.4648 27.2422C58.1914 27.6094 58.0547 28.1602 58.0547 28.8945ZM63.4629 28.7715C63.4629 28.1504 63.5859 27.5918 63.832 27.0957C64.0781 26.5957 64.4238 26.2129 64.8691 25.9473C65.3145 25.6777 65.8262 25.543 66.4043 25.543C67.2598 25.543 67.9531 25.8184 68.4844 26.3691C69.0195 26.9199 69.3086 27.6504 69.3516 28.5605L69.3574 28.8945C69.3574 29.5195 69.2363 30.0781 68.9941 30.5703C68.7559 31.0625 68.4121 31.4434 67.9629 31.7129C67.5176 31.9824 67.002 32.1172 66.416 32.1172C65.5215 32.1172 64.8047 31.8203 64.2656 31.2266C63.7305 30.6289 63.4629 29.834 63.4629 28.8418V28.7715ZM64.8867 28.8945C64.8867 29.5469 65.0215 30.0586 65.291 30.4297C65.5605 30.7969 65.9355 30.9805 66.416 30.9805C66.8965 30.9805 67.2695 30.793 67.5352 30.418C67.8047 30.043 67.9395 29.4941 67.9395 28.7715C67.9395 28.1309 67.8008 27.623 67.5234 27.248C67.25 26.873 66.877 26.6855 66.4043 26.6855C65.9395 26.6855 65.5703 26.8711 65.2969 27.2422C65.0234 27.6094 64.8867 28.1602 64.8867 28.8945ZM70.3125 28.7832C70.3125 27.7988 70.543 27.0137 71.0039 26.4277C71.4688 25.8379 72.084 25.543 72.8496 25.543C73.5723 25.543 74.1406 25.7949 74.5547 26.2988L74.6191 25.6602H75.9023V31.8066C75.9023 32.6387 75.6426 33.2949 75.123 33.7754C74.6074 34.2559 73.9102 34.4961 73.0312 34.4961C72.5664 34.4961 72.1113 34.3984 71.666 34.2031C71.2246 34.0117 70.8887 33.7598 70.6582 33.4473L71.332 32.5918C71.7695 33.1113 72.3086 33.3711 72.9492 33.3711C73.4219 33.3711 73.7949 33.2422 74.0684 32.9844C74.3418 32.7305 74.4785 32.3555 74.4785 31.8594V31.4316C74.0684 31.8887 73.5215 32.1172 72.8379 32.1172C72.0957 32.1172 71.4883 31.8223 71.0156 31.2324C70.5469 30.6426 70.3125 29.8262 70.3125 28.7832ZM71.7305 28.9062C71.7305 29.543 71.8594 30.0449 72.1172 30.4121C72.3789 30.7754 72.7402 30.957 73.2012 30.957C73.7754 30.957 74.2012 30.7109 74.4785 30.2188V27.4297C74.209 26.9492 73.7871 26.709 73.2129 26.709C72.7441 26.709 72.3789 26.8945 72.1172 27.2656C71.8594 27.6367 71.7305 28.1836 71.7305 28.9062ZM78.8848 32H77.4609V23H78.8848V32ZM83.2324 32.1172C82.3301 32.1172 81.5977 31.834 81.0352 31.2676C80.4766 30.6973 80.1973 29.9395 80.1973 28.9941V28.8184C80.1973 28.1855 80.3184 27.6211 80.5605 27.125C80.8066 26.625 81.1504 26.2363 81.5918 25.959C82.0332 25.6816 82.5254 25.543 83.0684 25.543C83.9316 25.543 84.5977 25.8184 85.0664 26.3691C85.5391 26.9199 85.7754 27.6992 85.7754 28.707V29.2812H81.6328C81.6758 29.8047 81.8496 30.2188 82.1543 30.5234C82.4629 30.8281 82.8496 30.9805 83.3145 30.9805C83.9668 30.9805 84.498 30.7168 84.9082 30.1895L85.6758 30.9219C85.4219 31.3008 85.082 31.5957 84.6562 31.8066C84.2344 32.0137 83.7598 32.1172 83.2324 32.1172ZM83.0625 26.6855C82.6719 26.6855 82.3555 26.8223 82.1133 27.0957C81.875 27.3691 81.7227 27.75 81.6562 28.2383H84.3691V28.1328C84.3379 27.6562 84.2109 27.2969 83.9883 27.0547C83.7656 26.8086 83.457 26.6855 83.0625 26.6855ZM91.4941 28.8301V32H90.0117V23.4688H93.2754C94.2285 23.4688 94.9844 23.7168 95.543 24.2129C96.1055 24.709 96.3867 25.3652 96.3867 26.1816C96.3867 27.0176 96.1113 27.668 95.5605 28.1328C95.0137 28.5977 94.2461 28.8301 93.2578 28.8301H91.4941ZM91.4941 27.6406H93.2754C93.8027 27.6406 94.2051 27.5176 94.4824 27.2715C94.7598 27.0215 94.8984 26.6621 94.8984 26.1934C94.8984 25.7324 94.7578 25.3652 94.4766 25.0918C94.1953 24.8145 93.8086 24.6719 93.3164 24.6641H91.4941V27.6406ZM99.0645 32H97.6406V23H99.0645V32ZM104.408 32C104.346 31.8789 104.291 31.6816 104.244 31.4082C103.791 31.8809 103.236 32.1172 102.58 32.1172C101.943 32.1172 101.424 31.9355 101.021 31.5723C100.619 31.209 100.418 30.7598 100.418 30.2246C100.418 29.5488 100.668 29.0312 101.168 28.6719C101.672 28.3086 102.391 28.127 103.324 28.127H104.197V27.7109C104.197 27.3828 104.105 27.1211 103.922 26.9258C103.738 26.7266 103.459 26.627 103.084 26.627C102.76 26.627 102.494 26.709 102.287 26.873C102.08 27.0332 101.977 27.2383 101.977 27.4883H100.553C100.553 27.1406 100.668 26.8164 100.898 26.5156C101.129 26.2109 101.441 25.9727 101.836 25.8008C102.234 25.6289 102.678 25.543 103.166 25.543C103.908 25.543 104.5 25.7305 104.941 26.1055C105.383 26.4766 105.609 27 105.621 27.6758V30.5352C105.621 31.1055 105.701 31.5605 105.861 31.9004V32H104.408ZM102.844 30.9746C103.125 30.9746 103.389 30.9062 103.635 30.7695C103.885 30.6328 104.072 30.4492 104.197 30.2188V29.0234H103.43C102.902 29.0234 102.506 29.1152 102.24 29.2988C101.975 29.4824 101.842 29.7422 101.842 30.0781C101.842 30.3516 101.932 30.5703 102.111 30.7344C102.295 30.8945 102.539 30.9746 102.844 30.9746ZM109.236 29.9609L110.525 25.6602H112.043L109.523 32.9609C109.137 34.0273 108.48 34.5605 107.555 34.5605C107.348 34.5605 107.119 34.5254 106.869 34.4551V33.3535L107.139 33.3711C107.498 33.3711 107.768 33.3047 107.947 33.1719C108.131 33.043 108.275 32.8242 108.381 32.5156L108.586 31.9707L106.359 25.6602H107.895L109.236 29.9609Z" fill="#333333"></path></svg>