<svg width="25" height="24" viewBox="0 0 25 24" fill="none" xmlns="http://www.w3.org/2000/svg"><path fill-rule="evenodd" clip-rule="evenodd" d="M18.6981 17.3638C19.9567 16.1051 20.8139 14.5014 21.1611 12.7556C21.2759 12.1785 21.3332 11.5943 21.334 11.0115C21.334 11.0039 21.334 10.9962 21.334 10.9885C21.3325 9.81611 21.1019 8.64941 20.6489 7.55571C19.9677 5.9112 18.8141 4.50562 17.3341 3.51671C15.8605 2.53214 14.1293 2.00461 12.3574 2H12.3105C10.5387 2.00461 8.80744 2.53214 7.3339 3.51671C5.85387 4.50562 4.70032 5.9112 4.01912 7.55571C3.56459 8.65299 3.33398 9.82375 3.33398 11C3.33398 11.5867 3.39134 12.1747 3.50689 12.7556C3.85412 14.5014 4.71124 16.1051 5.96986 17.3638L10.214 21.6069C10.3627 21.7555 10.5257 21.8871 10.6994 22H13.9696C14.1432 21.8871 14.306 21.7557 14.4547 21.6071L18.6981 17.3638ZM12.334 3.99997C10.9495 3.99997 9.59617 4.4105 8.44503 5.17966C7.2939 5.94881 6.39669 7.04204 5.86687 8.3211C5.33704 9.60016 5.1984 11.0076 5.46847 12.3655C5.73852 13.7233 6.40514 14.9705 7.38401 15.9495L8.72189 12.7198C8.4732 12.1986 8.33398 11.6152 8.33398 10.9992C8.33398 9.25909 9.44518 7.77847 10.9967 7.22824L12.334 3.99997ZM12.334 3.99997L10.9967 7.22824C11.4148 7.07996 11.865 6.99924 12.334 6.99924C14.5431 6.99924 16.334 8.7901 16.334 10.9992C16.334 13.2084 14.5431 14.9992 12.334 14.9992C10.7408 14.9992 9.36517 14.0677 8.72189 12.7198L7.38401 15.9495L11.6277 20.1922C11.8152 20.3794 12.0696 20.4847 12.3345 20.4847C12.5995 20.4847 12.8537 20.3795 13.0412 20.1922L17.2839 15.9496C18.2628 14.9706 18.9294 13.7233 19.1995 12.3655C19.4696 11.0076 19.3309 9.60016 18.8011 8.3211C18.2713 7.04204 17.3741 5.94881 16.2229 5.17966C15.0718 4.4105 13.7184 3.99997 12.334 3.99997ZM12.334 8.99924C11.2294 8.99924 10.334 9.89467 10.334 10.9992C10.334 12.1038 11.2294 12.9992 12.334 12.9992C13.4386 12.9992 14.334 12.1038 14.334 10.9992C14.334 9.89467 13.4386 8.99924 12.334 8.99924Z" fill="#333333"></path></svg>