<svg width="25" height="24" viewBox="0 0 25 24" fill="none" xmlns="http://www.w3.org/2000/svg"><path fill-rule="evenodd" clip-rule="evenodd" d="M2.33398 6.98557L2.33406 6.9809C2.34429 5.33738 3.67611 4.00734 5.32032 4H19.3477C20.9919 4.00734 22.3237 5.33737 22.3339 6.98089L22.334 6.98349V17.0096C22.3288 18.662 20.9876 20 19.334 20H5.334C3.67714 20 2.334 18.6568 2.334 17V7.0137L2.33398 7.01265V6.98557ZM5.334 5.99997C4.94774 5.99997 4.61264 6.21896 4.44606 6.53956L12.334 11.7982L20.2219 6.53956C20.0554 6.21896 19.7203 5.99997 19.334 5.99997H5.334ZM20.334 17V8.86855L12.8887 13.8321C12.5528 14.056 12.1152 14.056 11.7793 13.8321L4.334 8.86855V17C4.334 17.5523 4.78171 18 5.334 18H19.334C19.8863 18 20.334 17.5523 20.334 17Z" fill="#333333"></path></svg>