<svg width="129" height="44" viewBox="0 0 129 44" fill="none" xmlns="http://www.w3.org/2000/svg"><rect width="129" height="44" rx="4" fill="#F2F2F2"></rect><path fill-rule="evenodd" clip-rule="evenodd" d="M27.5091 34C22.0818 34 19.3545 34 17.6636 32.3091C16 30.6182 16 27.9182 16 22.4909V21.5364C16 16.0818 16 13.3818 17.6909 11.6909C19.3818 10 22.0818 10 27.5091 10H28.4636C33.8909 10 36.6182 10 38.3091 11.6909C40 13.3818 40 16.0818 40 21.5091V22.4636C40 27.8909 40 30.6182 38.3091 32.3091C36.6182 34 33.9182 34 28.4909 34H27.5091Z" fill="#333333"></path><path d="M29.8818 24.7818C29.2273 24.6182 28.7909 24.0454 28.7909 23.3909V15.5636C28.7909 14.8 29.5 14.2545 30.2364 14.4454L34.9 15.6182C35.5545 15.7818 35.9909 16.3545 35.9909 17.0091V24.8364C35.9909 25.6 35.2818 26.1454 34.5455 25.9545L29.8818 24.7818Z" fill="#F2F2F2"></path><path d="M21.1273 28.3818C20.4728 28.2181 20.0364 27.6454 20.0364 26.9909V19.1636C20.0364 18.4 20.7455 17.8545 21.4818 18.0454L26.1455 19.2181C26.8 19.3818 27.2364 19.9545 27.2364 20.6091V28.4363C27.2364 29.2 26.5273 29.7454 25.7909 29.5545L21.1273 28.3818Z" fill="#F2F2F2"></path><path d="M25.4909 26.5819C24.8364 26.4182 24.4 25.8455 24.4 25.1909V17.3637C24.4 16.6 25.1091 16.0546 25.8455 16.2455L30.5091 17.4182C31.1637 17.5819 31.6 18.1546 31.6 18.8091V26.6364C31.6 27.4 30.8909 27.9455 30.1546 27.7546L25.4909 26.5819Z" fill="#F2F2F2"></path><path d="M28.5455 27.3455C28.3546 27.2909 28.191 27.1 28.191 26.9091L28.0001 20.9364C27.9455 20.1455 27.3455 19.5182 26.7455 19.3273C26.7182 19.3273 26.6637 19.3273 26.6637 19.3545C26.6364 19.3818 26.6637 19.4364 26.691 19.4364C26.8546 19.5455 27.2637 19.9273 27.2637 20.5818V26.9636L28.5455 27.3455Z" fill="#333333"></path><path d="M32.9364 25.5455C32.7455 25.491 32.5819 25.3273 32.5819 25.1092L32.3637 19.1364C32.3091 18.3455 31.7091 17.7183 31.1091 17.5273C31.0819 17.5273 31.0273 17.5273 31.0273 17.5546C31 17.5819 31.0273 17.6364 31.0546 17.6364C31.2182 17.7455 31.6273 18.1273 31.6273 18.7819V25.1637L32.9364 25.5455Z" fill="#333333"></path><path d="M50.4023 14.2695H49.7266V13.7891H50.375C50.6615 13.7891 50.8932 13.7487 51.0703 13.668C51.2474 13.5872 51.3763 13.4753 51.457 13.332C51.5378 13.1888 51.5781 13.0234 51.5781 12.8359C51.5781 12.6562 51.5339 12.4922 51.4453 12.3438C51.3568 12.1927 51.2201 12.0729 51.0352 11.9844C50.8503 11.8932 50.612 11.8477 50.3203 11.8477C50.1016 11.8477 49.9036 11.8893 49.7266 11.9727C49.5495 12.0534 49.4089 12.1667 49.3047 12.3125C49.2005 12.4557 49.1484 12.6211 49.1484 12.8086H48.3945C48.3945 12.5664 48.4453 12.349 48.5469 12.1562C48.6484 11.9609 48.7878 11.7956 48.9648 11.6602C49.1419 11.5221 49.3464 11.4167 49.5781 11.3438C49.8125 11.2708 50.0599 11.2344 50.3203 11.2344C50.625 11.2344 50.901 11.2695 51.1484 11.3398C51.3958 11.4076 51.6081 11.5091 51.7852 11.6445C51.9622 11.7799 52.0977 11.9479 52.1914 12.1484C52.2852 12.349 52.332 12.582 52.332 12.8477C52.332 13.043 52.2865 13.2266 52.1953 13.3984C52.1042 13.5703 51.974 13.7214 51.8047 13.8516C51.6354 13.9818 51.4323 14.0846 51.1953 14.1602C50.9583 14.2331 50.694 14.2695 50.4023 14.2695ZM49.7266 13.9375H50.4023C50.7227 13.9375 51.0078 13.9701 51.2578 14.0352C51.5078 14.1003 51.7188 14.1953 51.8906 14.3203C52.0625 14.4453 52.1927 14.6003 52.2812 14.7852C52.3724 14.9674 52.418 15.1771 52.418 15.4141C52.418 15.6797 52.3659 15.9154 52.2617 16.1211C52.1602 16.3268 52.0156 16.5013 51.8281 16.6445C51.6406 16.7878 51.418 16.8958 51.1602 16.9688C50.9049 17.0417 50.625 17.0781 50.3203 17.0781C50.0755 17.0781 49.8333 17.0469 49.5938 16.9844C49.3568 16.9193 49.1419 16.8203 48.9492 16.6875C48.7565 16.5521 48.6016 16.3802 48.4844 16.1719C48.3698 15.9635 48.3125 15.7135 48.3125 15.4219H49.0664C49.0664 15.612 49.1185 15.7865 49.2227 15.9453C49.3294 16.1042 49.4766 16.2318 49.6641 16.3281C49.8516 16.4219 50.0703 16.4688 50.3203 16.4688C50.6068 16.4688 50.849 16.4245 51.0469 16.3359C51.2474 16.2448 51.3997 16.1211 51.5039 15.9648C51.6107 15.806 51.6641 15.6276 51.6641 15.4297C51.6641 15.2552 51.6354 15.1042 51.5781 14.9766C51.5234 14.8464 51.4414 14.7396 51.332 14.6562C51.2253 14.5729 51.0911 14.5117 50.9297 14.4727C50.7708 14.431 50.5859 14.4102 50.375 14.4102H49.7266V13.9375ZM55.793 16.2773V14.1016C55.793 13.9349 55.7591 13.7904 55.6914 13.668C55.6263 13.543 55.5273 13.4466 55.3945 13.3789C55.2617 13.3112 55.0977 13.2773 54.9023 13.2773C54.7201 13.2773 54.5599 13.3086 54.4219 13.3711C54.2865 13.4336 54.1797 13.5156 54.1016 13.6172C54.026 13.7188 53.9883 13.8281 53.9883 13.9453H53.2656C53.2656 13.7943 53.3047 13.6445 53.3828 13.4961C53.4609 13.3477 53.5729 13.2135 53.7188 13.0938C53.8672 12.9714 54.0443 12.875 54.25 12.8047C54.4583 12.7318 54.6901 12.6953 54.9453 12.6953C55.2526 12.6953 55.5234 12.7474 55.7578 12.8516C55.9948 12.9557 56.1797 13.1133 56.3125 13.3242C56.4479 13.5326 56.5156 13.7943 56.5156 14.1094V16.0781C56.5156 16.2188 56.5273 16.3685 56.5508 16.5273C56.5768 16.6862 56.6146 16.8229 56.6641 16.9375V17H55.9102C55.8737 16.9167 55.8451 16.806 55.8242 16.668C55.8034 16.5273 55.793 16.3971 55.793 16.2773ZM55.918 14.4375L55.9258 14.9453H55.1953C54.9896 14.9453 54.806 14.9622 54.6445 14.9961C54.4831 15.0273 54.3477 15.0755 54.2383 15.1406C54.1289 15.2057 54.0456 15.2878 53.9883 15.3867C53.931 15.4831 53.9023 15.5964 53.9023 15.7266C53.9023 15.8594 53.9323 15.9805 53.9922 16.0898C54.0521 16.1992 54.1419 16.2865 54.2617 16.3516C54.3841 16.4141 54.5339 16.4453 54.7109 16.4453C54.9323 16.4453 55.1276 16.3984 55.2969 16.3047C55.4661 16.2109 55.6003 16.0964 55.6992 15.9609C55.8008 15.8255 55.8555 15.694 55.8633 15.5664L56.1719 15.9141C56.1536 16.0234 56.1042 16.1445 56.0234 16.2773C55.9427 16.4102 55.8346 16.5378 55.6992 16.6602C55.5664 16.7799 55.4076 16.8802 55.2227 16.9609C55.0404 17.0391 54.8346 17.0781 54.6055 17.0781C54.319 17.0781 54.0677 17.0221 53.8516 16.9102C53.638 16.7982 53.4714 16.6484 53.3516 16.4609C53.2344 16.2708 53.1758 16.0586 53.1758 15.8242C53.1758 15.5977 53.2201 15.3984 53.3086 15.2266C53.3971 15.0521 53.5247 14.9076 53.6914 14.793C53.8581 14.6758 54.0586 14.5872 54.293 14.5273C54.5273 14.4674 54.7891 14.4375 55.0781 14.4375H55.918ZM60.3828 12.7734V13.3711H58.4297V17H57.707V12.7734H60.3828ZM61.7344 13.5859V18.625H61.0078V12.7734H61.6719L61.7344 13.5859ZM64.582 14.8516V14.9336C64.582 15.2409 64.5456 15.526 64.4727 15.7891C64.3997 16.0495 64.293 16.276 64.1523 16.4688C64.0143 16.6615 63.8438 16.8112 63.6406 16.918C63.4375 17.0247 63.2044 17.0781 62.9414 17.0781C62.6732 17.0781 62.4362 17.0339 62.2305 16.9453C62.0247 16.8568 61.8503 16.7279 61.707 16.5586C61.5638 16.3893 61.4492 16.1862 61.3633 15.9492C61.2799 15.7122 61.2227 15.4453 61.1914 15.1484V14.7109C61.2227 14.3984 61.2812 14.1185 61.3672 13.8711C61.4531 13.6237 61.5664 13.4128 61.707 13.2383C61.8503 13.0612 62.0234 12.9271 62.2266 12.8359C62.4297 12.7422 62.6641 12.6953 62.9297 12.6953C63.1953 12.6953 63.431 12.7474 63.6367 12.8516C63.8424 12.9531 64.0156 13.099 64.1562 13.2891C64.2969 13.4792 64.4023 13.707 64.4727 13.9727C64.5456 14.2357 64.582 14.5286 64.582 14.8516ZM63.8555 14.9336V14.8516C63.8555 1… 71.4427 14.3372 71.4922 14.2461C71.5417 14.1549 71.5664 14.0482 71.5664 13.9258C71.5664 13.8164 71.5378 13.7135 71.4805 13.6172C71.4258 13.5182 71.3372 13.4388 71.2148 13.3789C71.0924 13.3164 70.9284 13.2852 70.7227 13.2852C70.556 13.2852 70.4049 13.3151 70.2695 13.375C70.1341 13.4323 70.026 13.5117 69.9453 13.6133C69.8672 13.7122 69.8281 13.8242 69.8281 13.9492H69.1055C69.1055 13.6914 69.1784 13.4701 69.3242 13.2852C69.4727 13.0977 69.6693 12.9531 69.9141 12.8516C70.1615 12.75 70.431 12.6992 70.7227 12.6992C70.9674 12.6992 71.1862 12.7266 71.3789 12.7812C71.5742 12.8333 71.7396 12.9115 71.875 13.0156C72.0104 13.1172 72.1133 13.2448 72.1836 13.3984C72.2565 13.5495 72.293 13.7253 72.293 13.9258C72.293 14.069 72.2591 14.2044 72.1914 14.332C72.1237 14.4596 72.026 14.5729 71.8984 14.6719C71.7708 14.7682 71.6159 14.8438 71.4336 14.8984C71.2539 14.9531 71.0508 14.9805 70.8242 14.9805ZM70.0469 14.707H70.8242C71.0768 14.707 71.2995 14.7318 71.4922 14.7812C71.6849 14.8281 71.8464 14.8984 71.9766 14.9922C72.1068 15.0859 72.2044 15.2018 72.2695 15.3398C72.3372 15.4753 72.3711 15.6315 72.3711 15.8086C72.3711 16.0065 72.3307 16.1849 72.25 16.3438C72.1719 16.5 72.0599 16.6328 71.9141 16.7422C71.7682 16.8516 71.5938 16.9349 71.3906 16.9922C71.1901 17.0495 70.9674 17.0781 70.7227 17.0781C70.4492 17.0781 70.1836 17.0312 69.9258 16.9375C69.668 16.8438 69.4557 16.6992 69.2891 16.5039C69.1224 16.306 69.0391 16.0547 69.0391 15.75H69.7617C69.7617 15.8776 69.8021 15.9987 69.8828 16.1133C69.9635 16.2279 70.0755 16.3203 70.2188 16.3906C70.3646 16.4609 70.5326 16.4961 70.7227 16.4961C70.9258 16.4961 71.0951 16.4648 71.2305 16.4023C71.3659 16.3398 71.4674 16.2565 71.5352 16.1523C71.6055 16.0482 71.6406 15.9349 71.6406 15.8125C71.6406 15.6536 71.6094 15.526 71.5469 15.4297C71.4844 15.3333 71.388 15.263 71.2578 15.2188C71.1302 15.1719 70.9661 15.1484 70.7656 15.1484H70.0469V14.707ZM74.0898 15.8555L76.0391 12.7734H76.7656V17H76.0391V13.918L74.0898 17H73.3711V12.7734H74.0898V15.8555ZM79.6484 12.7734V17H78.9219V12.7734H79.6484ZM81.0664 12.7734V13.3594H77.5312V12.7734H81.0664ZM83.2188 17.0781C82.9245 17.0781 82.6576 17.0286 82.418 16.9297C82.181 16.8281 81.9766 16.6862 81.8047 16.5039C81.6354 16.3216 81.5052 16.1055 81.4141 15.8555C81.3229 15.6055 81.2773 15.332 81.2773 15.0352V14.8711C81.2773 14.5273 81.3281 14.2214 81.4297 13.9531C81.5312 13.6823 81.6693 13.4531 81.8438 13.2656C82.0182 13.0781 82.2161 12.9362 82.4375 12.8398C82.6589 12.7435 82.888 12.6953 83.125 12.6953C83.4271 12.6953 83.6875 12.7474 83.9062 12.8516C84.1276 12.9557 84.3086 13.1016 84.4492 13.2891C84.5898 13.474 84.694 13.6927 84.7617 13.9453C84.8294 14.1953 84.8633 14.4688 84.8633 14.7656V15.0898H81.707V14.5H84.1406V14.4453C84.1302 14.2578 84.0911 14.0755 84.0234 13.8984C83.9583 13.7214 83.8542 13.5755 83.7109 13.4609C83.5677 13.3464 83.3724 13.2891 83.125 13.2891C82.9609 13.2891 82.8099 13.3242 82.6719 13.3945C82.5339 13.4622 82.4154 13.5638 82.3164 13.6992C82.2174 13.8346 82.1406 14 82.0859 14.1953C82.0312 14.3906 82.0039 14.6159 82.0039 14.8711V15.0352C82.0039 15.2357 82.0312 15.4245 82.0859 15.6016C82.1432 15.776 82.2253 15.9297 82.332 16.0625C82.4414 16.1953 82.5729 16.2995 82.7266 16.375C82.8828 16.4505 83.0599 16.4883 83.2578 16.4883C83.513 16.4883 83.7292 16.4362 83.9062 16.332C84.0833 16.2279 84.2383 16.0885 84.3711 15.9141L84.8086 16.2617C84.7174 16.3997 84.6016 16.5312 84.4609 16.6562C84.3203 16.7812 84.1471 16.8828 83.9414 16.9609C83.7383 17.0391 83.4974 17.0781 83.2188 17.0781ZM89.6758 15.1406H88.2891L88.2812 14.5625H89.4141C89.638 14.5625 89.8242 14.5404 89.9727 14.4961C90.1237 14.4518 90.237 14.3854 90.3125 14.2969C90.388 14.2083 90.4258 14.099 90.4258 13.9688C90.4258 13.8672 90.4036 13.7786 90.3594 13.7031C90.3177 13.625 90.2539 13.5612 90.168 13.5117C90.082 13.4596 89.9753 13.4219 89.8477 13.3984C89.7227 13.3724 89.5755 13.3594 89.4062 13.3594H88.4805V17H87.7578V12.7734H89.4062C89.6745 12.7734 89.9154 12.7969 90.1289 12.8438C90.3451 12.8906 90.5286 12.9622 90.6797 13.0586C90.8333 13.1523 90.9505 13.2721 91.0312 13.418C91.112 13.5638 91.1523 13.7357 91.1523 13.9336C91.1523 14.0612 91.1263 14.1823 91.0742 14.2969C91.0221 14.4115 90.9453 14.513 90.8438 14.6016C90.7422 14.6901 90.6172 14.763 90.4688 14.8203C90.3203 14.875 90.1497 14.9102 89.957 14.9258L89.6758 15.1406ZM89.6758 17H88.0273L88.3867 16.4141H89.6758C89.8763 16.4141 90.043 16.3893 90.1758 16.3398C90.3086 16.2878 90.4076 16.2148 90.4727 16.1211C90.5404 16.0247 90.5742 15.9102 90.5742 15.7773C90.5742 15.6445 90.5404 15.5312 90.4727 15.4375C90.4076 15.3411 90.3086 15.2682 90.1758 15.2188C90.043 15.1667 89.8763 15.1406 89.6758 15.1406H88.5781L88.5859 14.5625H89.957L90.2188 14.7812C90.4505 14.7995 90.6471 14.8568 90.8086 14.9531C90.9701 15.0495 91.0924 15.1719 91.1758 15.3203C91.2591 15.4661 91.3008 15.625 91.3008 15.7969C91.3008 15.9948 91.263 16.1693 91.1875 16.3203C91.1146 16.4714 91.0078 16.5977 90.8672 16.6992C90.7266 16.7982 90.556 16.8737 90.3555 16.9258C90.1549 16.9753 89.9284 17 89.6758 17Z" fill="#333333"></path><path d="M48.8672 23.4688H51.8848C52.5332 23.4688 53.0859 23.5664 53.543 23.7617C54 23.957 54.3496 24.2461 54.5918 24.6289C54.8379 25.0078 54.9609 25.4766 54.9609 26.0352C54.9609 26.4609 54.8828 26.8359 54.7266 27.1602C54.5703 27.4844 54.3496 27.7578 54.0645 27.9805C53.7793 28.1992 53.4395 28.3691 53.0449 28.4902L52.5996 28.707H49.8867L49.875 27.541H51.9082C52.2598 27.541 52.5527 27.4785 52.7871 27.3535C53.0215 27.2285 53.1973 27.0586 53.3145 26.8438C53.4355 26.625 53.4961 26.3789 53.4961 26.1055C53.4961 25.8086 53.4375 25.5508 53.3203 25.332C53.207 25.1094 53.0312 24.9395 52.793 24.8223C52.5547 24.7012 52.252 24.6406 51.8848 24.6406H50.3379V32H48.8672V23.4688ZM53.7363 32L51.7324 28.168L53.2734 28.1621L55.3066 31.9238V32H53.7363ZM60.0996 30.5059V25.6602H61.5176V32H60.1816L60.0996 30.5059ZM60.2988 29.1875L60.7734 29.1758C60.7734 29.6016 60.7266 29.9941 60.6328 30.3535C60.5391 30.709 60.3945 31.0195 60.1992 31.2852C60.0039 31.5469 59.7539 31.752 59.4492 31.9004C59.1445 32.0449 58.7793 32.1172 58.3535 32.1172C58.0449 32.1172 57.7617 32.0723 57.5039 31.9824C57.2461 31.8926 57.0234 31.7539 56.8359 31.5664C56.6523 31.3789 56.5098 31.1348 56.4082 30.834C56.3066 30.5332 56.2559 30.1738 56.2559 29.7559V25.6602H57.668V29.7676C57.668 29.998 57.6953 30.1914 57.75 30.3477C57.8047 30.5 57.8789 30.623 57.9727 30.7168C58.0664 30.8105 58.1758 30.877 58.3008 30.916C58.4258 30.9551 58.5586 30.9746 58.6992 30.9746C59.1016 30.9746 59.418 30.8965 59.6484 30.7402C59.8828 30.5801 60.0488 30.3652 60.1465 30.0957C60.248 29.8262 60.2988 29.5234 60.2988 29.1875ZM67.5938 29.8027C67.5938 29.627 67.5664 29.4707 67.5117 29.334C67.4609 29.1973 67.3691 29.0723 67.2363 28.959C67.1035 28.8457 66.916 28.7363 66.6738 28.6309C66.4355 28.5215 66.1309 28.4102 65.7598 28.2969C65.3535 28.1719 64.9785 28.0332 64.6348 27.8809C64.2949 27.7246 63.998 27.5449 63.7441 27.3418C63.4902 27.1348 63.293 26.8984 63.1523 26.6328C63.0117 26.3633 62.9414 26.0527 62.9414 25.7012C62.9414 25.3535 63.0137 25.0371 63.1582 24.752C63.3066 24.4668 63.5156 24.2207 63.7852 24.0137C64.0586 23.8027 64.3809 23.6406 64.752 23.5273C65.123 23.4102 65.5332 23.3516 65.9824 23.3516C66.6152 23.3516 67.1602 23.4688 67.6172 23.7031C68.0781 23.9375 68.4316 24.252 68.6777 24.6465C68.9277 25.041 69.0527 25.4766 69.0527 25.9531H67.5938C67.5938 25.6719 67.5332 25.4238 67.4121 25.209C67.2949 24.9902 67.1152 24.8184 66.873 24.6934C66.6348 24.5684 66.332 24.5059 65.9648 24.5059C65.6172 24.5059 65.3281 24.5586 65.0977 24.6641C64.8672 24.7695 64.6953 24.9121 64.582 25.0918C64.4688 25.2715 64.4121 25.4746 64.4121 25.7012C64.4121 25.8613 64.4492 26.0078 64.5234 26.1406C64.5977 26.2695 64.7109 26.3906 64.8633 26.5039C65.0156 26.6133 65.207 26.7168 65.4375 26.8145C65.668 26.9121 65.9395 27.0059 66.252 27.0957C66.7246 27.2363 67.1367 27.3926 67.4883 27.5645C67.8398 27.7324 68.1328 27.9238 68.3672 28.1387C68.6016 28.3535 68.7773 28.5977 68.8945 28.8711C69.0117 29.1406 69.0703 29.4473 69.0703 29.791C69.0703 30.1504 68.998 30.4746 68.8535 30.7637C68.709 31.0488 68.502 31.293 68.2324 31.4961C67.9668 31.6953 67.6465 31.8496 67.2715 31.959C66.9004 32.0645 66.4863 32.1172 66.0293 32.1172C65.6191 32.1172 65.2148 32.0625 64.8164 31.9531C64.4219 31.8438 64.0625 31.6777 63.7383 31.4551C63.4141 31.2285 63.1562 30.9473 62.9648 30.6113C62.7734 30.2715 62.6777 29.875 62.6777 29.4219H64.1484C64.1484 29.6992 64.1953 29.9355 64.2891 30.1309C64.3867 30.3262 64.5215 30.4863 64.6934 30.6113C64.8652 30.7324 65.0645 30.8223 65.291 30.8809C65.5215 30.9395 65.7676 30.9688 66.0293 30.9688C66.373 30.9688 66.6602 30.9199 66.8906 30.8223C67.125 30.7246 67.3008 30.5879 67.418 30.4121C67.5352 30.2363 67.5938 30.0332 67.5938 29.8027ZM73.1367 25.6602V26.6914H69.5625V25.6602H73.1367ZM70.5938 24.1074H72.0059V30.248C72.0059 30.4434 72.0332 30.5938 72.0879 30.6992C72.1465 30.8008 72.2266 30.8691 72.3281 30.9043C72.4297 30.9395 72.5488 30.957 72.6855 30.957C72.7832 30.957 72.877 30.9512 72.9668 30.9395C73.0566 30.9277 73.1289 30.916 73.1836 30.9043L73.1895 31.9824C73.0723 32.0176 72.9355 32.0488 72.7793 32.0762C72.627 32.1035 72.4512 32.1172 72.252 32.1172C71.9277 32.1172 71.6406 32.0605 71.3906 31.9473C71.1406 31.8301 70.9453 31.6406 70.8047 31.3789C70.6641 31.1172 70.5938 30.7695 70.5938 30.3359V24.1074ZM73.8164 28.9004V28.7656C73.8164 28.3086 73.8828 27.8848 74.0156 27.4941C74.1484 27.0996 74.3398 26.7578 74.5898 26.4688C74.8438 26.1758 75.1523 25.9492 75.5156 25.7891C75.8828 25.625 76.2969 25.543 76.7578 25.543C77.2227 25.543 77.6367 25.625 78 25.7891C78.3672 25.9492 78.6777 26.1758 78.9316 26.4688C79.1855 26.7578 79.3789 27.0996 79.5117 27.4941C79.6445 27.8848 79.7109 28.3086 79.7109 28.7656V28.9004C79.7109 29.3574 79.6445 29.7812 79.5117 30.1719C79.3789 30.5625 79.1855 30.9043 78.9316 31.1973C78.6777 31.4863 78.3691 31.7129 78.0059 31.877C77.6426 32.0371 77.2305 32.1172 76.7695 32.1172C76.3047 32.1172 75.8887 32.0371 75.5215 31.877C75.1582 31.7129 74.8496 31.4863 74.5957 31.1973C74.3418 30.9043 74.1484 30.5625 74.0156 30.1719C73.8828 29.7812 73.8164 29.3574 73.8164 28.9004ZM75.2285 28.7656V28.9004C75.2285 29.1855 75.2578 29.4551 75.3164 29.709C75.375 29.9629 75.4668 30.1855 75.5918 30.377C75.7168 30.5684 75.877 30.7188 76.0723 30.8281C76.2676 30.9375 76.5 30.9922 76.7695 30.9922C77.0312 30.9922 77.2578 30.9375 77.4492 30.8281C77.6445 30.7188 77.8047 30.5684 77.9297 30.377C78.0547 30.1855 78.1465 29.9629 78.2051 29.709C78.2676 29.4551 78.2988 29.1855 78.2988 28.9004V28.7656C78.2988 28.4844 78.2676 28.2188 78.2051 27.9688C78.1465 27.7148 78.0527 27.4902 77.9238 27.2949C77.7988 27.0996 77.6387 26.9473 77.4434 26.8379C77.252 26.7246 77.0234 26.668 76.7578 26.668C76.4922 26.668 76.2617 26.7246 76.0664 26.8379C75.875 26.9473 75.7168 27.0996 75.5918 27.2949C75.4668 27.4902 75.375 27.7148 75.3164 27.9688C75.2578 28.2188 75.2285 28.4844 75.2285 28.7656ZM82.3125 26.8672V32H80.9004V25.6602H82.248L82.3125 26.8672ZM84.252 25.6191L84.2402 26.9316C84.1543 26.916 84.0605 26.9043 83.959 26.8965C83.8613 26.8887 83.7637 26.8848 83.666 26.8848C83.4238 26.8848 83.2109 26.9199 83.0273 26.9902C82.8438 27.0566 82.6895 27.1543 82.5645 27.2832C82.4434 27.4082 82.3496 27.5605 82.2832 27.7402C82.2168 27.9199 82.1777 28.1211 82.166 28.3438L81.8438 28.3672C81.8438 27.9688 81.8828 27.5996 81.9609 27.2598C82.0391 26.9199 82.1562 26.6211 82.3125 26.3633C82.4727 26.1055 82.6719 25.9043 82.9102 25.7598C83.1523 25.6152 83.4316 25.543 83.748 25.543C83.834 25.543 83.9258 25.5508 84.0234 25.5664C84.125 25.582 84.2012 25.5996 84.252 25.6191ZM87.8145 32.1172C87.3457 32.1172 86.9219 32.041 86.543 31.8887C86.168 31.7324 85.8477 31.5156 85.582 31.2383C85.3203 30.9609 85.1191 30.6348 84.9785 30.2598C84.8379 29.8848 84.7676 29.4805 84.7676 29.0469V28.8125C84.7676 28.3164 84.8398 27.8672 84.9844 27.4648C85.1289 27.0625 85.3301 26.7188 85.5879 26.4336C85.8457 26.1445 86.1504 25.9238 86.502 25.7715C86.8535 25.6191 87.2344 25.543 87.6445 25.543C88.0977 25.543 88.4941 25.6191 88.834 25.7715C89.1738 25.9238 89.4551 26.1387 89.6777 26.416C89.9043 26.6895 90.0723 27.0156 90.1816 27.3945C90.2949 27.7734 90.3516 28.1914 90.3516 28.6484V29.252H85.4531V28.2383H88.957V28.127C88.9492 27.873 88.8984 27.6348 88.8047 27.4121C88.7148 27.1895 88.5762 27.0098 88.3887 26.873C88.2012 26.7363 87.9512 26.668 87.6387 26.668C87.4043 26.668 87.1953 26.7188 87.0117 26.8203C86.832 26.918 86.6816 27.0605 86.5605 27.248C86.4395 27.4355 86.3457 27.6621 86.2793 27.9277C86.2168 28.1895 86.1855 28.4844 86.1855 28.8125V29.0469C86.1855 29.3242 86.2227 29.582 86.2969 29.8203C86.375 30.0547 86.4883 30.2598 86.6367 30.4355C86.7852 30.6113 86.9648 30.75 87.1758 30.8516C87.3867 30.9492 87.627 30.998 87.8965 30.998C88.2363 30.998 88.5391 30.9297 88.8047 30.793C89.0703 30.6562 89.3008 30.4629 89.4961 30.2129L90.2402 30.9336C90.1035 31.1328 89.9258 31.3242 89.707 31.5078C89.4883 31.6875 89.2207 31.834 88.9043 31.9473C88.5918 32.0605 88.2285 32.1172 87.8145 32.1172Z" fill="#333333"></path></svg>