<svg xmlns="http://www.w3.org/2000/svg" width="24" height="24" viewBox="0 0 24 24" fill="none"><path d="M4 3H20C20.5304 3 21.0391 3.21071 21.4142 3.58579C21.7893 3.96086 22 4.46957 22 5V17C22 17.5304 21.7893 18.0391 21.4142 18.4142C21.0391 18.7893 20.5304 19 20 19H16L12 23L8 19H4C3.46957 19 2.96086 18.7893 2.58579 18.4142C2.21071 18.0391 2 17.5304 2 17V5C2 4.46957 2.21071 3.96086 2.58579 3.58579C2.96086 3.21071 3.46957 3 4 3ZM4 5V17H8.83L12 20.17L15.17 17H20V5H4Z" fill="#c7c7c7"></path><path d="M10 13.191V8.80902C10 8.43733 10.3912 8.19558 10.7236 8.3618L15.1056 10.5528C15.4741 10.737 15.4741 11.263 15.1056 11.4472L10.7236 13.6382C10.3912 13.8044 10 13.5627 10 13.191Z" fill="#c7c7c7"></path></svg>