<svg class="ut-icon" width="24" height="24" viewBox="0 0 24 24" fill="none" xmlns="http://www.w3.org/2000/svg"><path d="M12.8 8C12.8 7.55817 12.4418 7.2 12 7.2C11.5582 7.2 11.2 7.55817 11.2 8V12C11.2 12.2122 11.2843 12.4157 11.4343 12.5657L13.8343 14.9657C14.1467 15.2781 14.6533 15.2781 14.9657 14.9657C15.2781 14.6533 15.2781 14.1467 14.9657 13.8343L12.8 11.6686V8Z" fill="#666666"></path><path fill-rule="evenodd" clip-rule="evenodd" d="M12 4C7.58172 4 4 7.58172 4 12C4 16.4183 7.58172 20 12 20C16.4183 20 20 16.4183 20 12C20 7.58172 16.4183 4 12 4ZM5.6 12C5.6 8.46538 8.46538 5.6 12 5.6C15.5346 5.6 18.4 8.46538 18.4 12C18.4 15.5346 15.5346 18.4 12 18.4C8.46538 18.4 5.6 15.5346 5.6 12Z" fill="#666666"></path></svg>