<svg fill="#B3B3B3" class="ut-icon" width="24" height="24" viewBox="0 0 16 16" xmlns="http://www.w3.org/2000/svg"><path d="M3.10101 0H4.06101L4.71967 2.468L5.33034 0H6.29967L5.18967 3.67V6.17467H4.23567V3.67L3.10101 0V0ZM7.49701 1.582C6.75101 1.582 6.25634 2.07533 6.25634 2.80533V5.038C6.25634 5.84067 6.67567 6.25867 7.49701 6.25867C8.17834 6.25867 8.71434 5.80333 8.71434 5.038V2.80533C8.71434 2.09267 8.18301 1.582 7.49701 1.582ZM7.85101 5C7.85101 5.248 7.72434 5.43067 7.49634 5.43067C7.26234 5.43067 7.12701 5.23933 7.12701 5V2.88067C7.12701 2.63133 7.24167 2.44667 7.47967 2.44667C7.73968 2.44667 7.85101 2.626 7.85101 2.88067V5ZM11.0037 1.62V5.07733C10.9003 5.20667 10.6703 5.41867 10.5057 5.41867C10.325 5.41867 10.2803 5.29467 10.2803 5.112V1.62H9.43367V5.42667C9.43367 5.87667 9.57101 6.24 10.025 6.24C10.281 6.24 10.637 6.10667 11.0037 5.67133V6.174H11.8503V1.62H11.0037ZM12.4723 10.8587C12.1737 10.8587 12.1117 11.0687 12.1117 11.3673V11.8067H12.8243V11.3667C12.825 11.0733 12.763 10.8587 12.4723 10.8587ZM9.33701 10.8853C9.28101 10.914 9.22567 10.958 9.17034 11.0173V13.7207C9.23634 13.7913 9.29967 13.842 9.36168 13.8733C9.49301 13.94 9.68501 13.9447 9.77434 13.8287C9.82101 13.7673 9.84434 13.668 9.84434 13.5293V11.29C9.84434 11.1433 9.81567 11.0327 9.75834 10.9567C9.66034 10.828 9.47834 10.814 9.33701 10.8853ZM12.555 7.422C10.819 7.304 5.17767 7.304 3.44434 7.422C1.56834 7.55 1.34701 8.68333 1.33301 11.6667C1.34701 14.6447 1.56634 15.7833 3.44434 15.9113C5.17767 16.0293 10.819 16.0293 12.555 15.9113C14.431 15.7833 14.6523 14.6493 14.6663 11.6667C14.6523 8.68867 14.433 7.55 12.555 7.422ZM4.33901 14.546H3.43034V9.51933H2.49034V8.666H5.27834V9.51933H4.33834V14.546H4.33901ZM7.56967 14.546H6.76301V14.0673C6.61434 14.244 6.45967 14.3787 6.29901 14.4707C5.86434 14.72 5.26767 14.714 5.26767 13.834V10.2087H6.07367V13.534C6.07367 13.7087 6.11567 13.826 6.28834 13.826C6.44567 13.826 6.66434 13.624 6.76234 13.5013V10.2087H7.56901V14.546H7.56967ZM10.6743 13.6473C10.6743 14.184 10.4737 14.6013 9.93701 14.6013C9.64167 14.6013 9.39567 14.4933 9.17101 14.2127V14.546H8.35701V8.666H9.17101V10.5593C9.35301 10.3373 9.60034 10.154 9.88834 10.154C10.479 10.154 10.675 10.6533 10.675 11.2413V13.6473H10.6743ZM13.655 12.4793H12.1123V13.298C12.1123 13.6233 12.1403 13.9047 12.4643 13.9047C12.805 13.9047 12.825 13.6753 12.825 13.298V12.9967H13.655V13.3227C13.655 14.158 13.2963 14.6647 12.4463 14.6647C11.6763 14.6647 11.2823 14.1033 11.2823 13.3227V11.3753C11.2823 10.6227 11.7797 10.0993 12.507 10.0993C13.281 10.0993 13.6543 10.5913 13.6543 11.3753V12.4793H13.655Z"></path></svg>